<?xml version="1.0" encoding="UTF-8"?>
<svg version="1.1" xmlns="http://www.w3.org/2000/svg" width="524" height="305">
<path d="M0 0 C172.92 0 345.84 0 524 0 C524 100.65 524 201.3 524 305 C351.08 305 178.16 305 0 305 C0 204.35 0 103.7 0 0 Z " fill="#FEFEFE" transform="translate(0,0)"/>
<path d="M0 0 C89.76 0 179.52 0 272 0 C272 76.89 272 153.78 272 233 C182.24 233 92.48 233 0 233 C-0.33 188.12 -0.66 143.24 -1 97 C-2.485 97.495 -2.485 97.495 -4 98 C-4.76437774 99.68867169 -4.76437774 99.68867169 -5.2109375 101.875 C-6.63353323 107.08314707 -8.51020173 112.00584233 -10.5390625 117 C-10.86694763 117.80735596 -11.19483276 118.61471191 -11.53265381 119.4465332 C-12.55999854 121.96577514 -13.59248168 124.48287473 -14.625 127 C-15.3259233 128.71988812 -16.02644746 130.43993896 -16.7265625 132.16015625 C-21.79277372 144.58554744 -21.79277372 144.58554744 -23 147 C-23.99 147 -24.98 147 -26 147 C-27.69626135 142.82133055 -29.3867488 138.64038873 -31.07202148 134.45727539 C-31.64565033 133.03574383 -32.22082791 131.61483619 -32.79760742 130.19458008 C-33.62830985 128.14828548 -34.45334272 126.09978201 -35.27734375 124.05078125 C-35.53466782 123.4203743 -35.79199188 122.78996735 -36.05711365 122.14045715 C-37.40015234 118.78391635 -38.42781468 115.5724524 -39 112 C-39.66 112 -40.32 112 -41 112 C-41.15637939 112.56960449 -41.31275879 113.13920898 -41.47387695 113.72607422 C-43.57232822 121.06152995 -46.30988402 128.06437306 -49.1875 135.125 C-49.65091797 136.27226562 -50.11433594 137.41953125 -50.59179688 138.6015625 C-51.72391166 141.40267125 -52.86004534 144.20207482 -54 147 C-54.99 147 -55.98 147 -57 147 C-62.29740717 134.96790466 -67.33154394 122.8390257 -72.17373657 110.61740112 C-72.76622705 109.12251364 -73.36044568 107.62830994 -73.95639038 106.13479614 C-74.80061509 104.01645858 -75.63771145 101.89544716 -76.47265625 99.7734375 C-76.7284848 99.13364456 -76.98431335 98.49385162 -77.24789429 97.83467102 C-78.33475425 95.049158 -79 93.02252061 -79 90 C-77.02 90 -75.04 90 -73 90 C-70.43171122 96.37014069 -67.86876249 102.7424103 -65.30957031 109.11621094 C-64.43776217 111.28565446 -63.56471854 113.4546019 -62.69042969 115.62304688 C-61.43622293 118.73438972 -60.18642494 121.84747138 -58.9375 124.9609375 C-58.54377197 125.934935 -58.15004395 126.9089325 -57.74438477 127.91244507 C-57.38401123 128.81322784 -57.0236377 129.71401062 -56.65234375 130.64208984 C-56.17269165 131.83455826 -56.17269165 131.83455826 -55.68334961 133.05111694 C-55 135 -55 135 -55 137 C-54.34 137 -53.68 137 -53 137 C-52.87834473 136.27852783 -52.75668945 135.55705566 -52.63134766 134.8137207 C-51.99657839 131.98475094 -51.08157637 129.62274502 -49.8984375 126.98046875 C-49.49109375 126.04009766 -49.08375 125.09972656 -48.6640625 124.13085938 C-47.80772329 122.17555151 -46.9405856 120.22493594 -46.0625 118.27929688 C-42.92550548 110.96130807 -42.40820299 106.74342724 -44.97265625 99.1015625 C-45.33230469 98.28429687 -45.69195312 97.46703125 -46.0625 96.625 C-48 92.17081851 -48 92.17081851 -48 90 C-46.02 90 -44.04 90 -42 90 C-37.93253429 98.66078934 -34.33455871 107.48367172 -30.8125 116.375 C-30.27433458 117.72796248 -29.73592437 119.08082761 -29.19726562 120.43359375 C-28.2130911 122.9061467 -27.23060201 125.37934338 -26.24926758 127.85302734 C-25.17052152 130.57044705 -24.087317 133.2860008 -23 136 C-22.58637207 134.78417236 -22.17274414 133.56834473 -21.74658203 132.31567383 C-20.20853313 127.79584865 -18.66873697 123.27662035 -17.12841797 118.75756836 C-16.46257783 116.80330324 -15.79720875 114.84887756 -15.13232422 112.89428711 C-14.17539919 110.08144246 -13.21676988 107.26918358 -12.2578125 104.45703125 C-11.96190216 103.58601273 -11.66599182 102.7149942 -11.3611145 101.81758118 C-10.00141531 97.83529073 -8.62108322 93.88572951 -7 90 C-4.69 90 -2.38 90 0 90 C0 60.3 0 30.6 0 0 Z " fill="#FEFEFE" transform="translate(118,37)"/>
<path d="M0 0 C89.76 0 179.52 0 272 0 C272 76.89 272 153.78 272 233 C182.24 233 92.48 233 0 233 C-0.33 188.12 -0.66 143.24 -1 97 C-2.485 97.495 -2.485 97.495 -4 98 C-4.76437774 99.68867169 -4.76437774 99.68867169 -5.2109375 101.875 C-6.63353323 107.08314707 -8.51020173 112.00584233 -10.5390625 117 C-10.86694763 117.80735596 -11.19483276 118.61471191 -11.53265381 119.4465332 C-12.55999854 121.96577514 -13.59248168 124.48287473 -14.625 127 C-15.3259233 128.71988812 -16.02644746 130.43993896 -16.7265625 132.16015625 C-21.79277372 144.58554744 -21.79277372 144.58554744 -23 147 C-23.99 147 -24.98 147 -26 147 C-27.69626135 142.82133055 -29.3867488 138.64038873 -31.07202148 134.45727539 C-31.64565033 133.03574383 -32.22082791 131.61483619 -32.79760742 130.19458008 C-33.62830985 128.14828548 -34.45334272 126.09978201 -35.27734375 124.05078125 C-35.53466782 123.4203743 -35.79199188 122.78996735 -36.05711365 122.14045715 C-37.40015234 118.78391635 -38.42781468 115.5724524 -39 112 C-39.66 112 -40.32 112 -41 112 C-41.15637939 112.56960449 -41.31275879 113.13920898 -41.47387695 113.72607422 C-43.57232822 121.06152995 -46.30988402 128.06437306 -49.1875 135.125 C-49.65091797 136.27226562 -50.11433594 137.41953125 -50.59179688 138.6015625 C-51.72391166 141.40267125 -52.86004534 144.20207482 -54 147 C-54.99 147 -55.98 147 -57 147 C-62.29740717 134.96790466 -67.33154394 122.8390257 -72.17373657 110.61740112 C-72.76622705 109.12251364 -73.36044568 107.62830994 -73.95639038 106.13479614 C-74.80061509 104.01645858 -75.63771145 101.89544716 -76.47265625 99.7734375 C-76.7284848 99.13364456 -76.98431335 98.49385162 -77.24789429 97.83467102 C-78.33475425 95.049158 -79 93.02252061 -79 90 C-77.02 90 -75.04 90 -73 90 C-70.43171122 96.37014069 -67.86876249 102.7424103 -65.30957031 109.11621094 C-64.43776217 111.28565446 -63.56471854 113.4546019 -62.69042969 115.62304688 C-61.43622293 118.73438972 -60.18642494 121.84747138 -58.9375 124.9609375 C-58.54377197 125.934935 -58.15004395 126.9089325 -57.74438477 127.91244507 C-57.38401123 128.81322784 -57.0236377 129.71401062 -56.65234375 130.64208984 C-56.17269165 131.83455826 -56.17269165 131.83455826 -55.68334961 133.05111694 C-55 135 -55 135 -55 137 C-54.34 137 -53.68 137 -53 137 C-52.87834473 136.27852783 -52.75668945 135.55705566 -52.63134766 134.8137207 C-51.99657839 131.98475094 -51.08157637 129.62274502 -49.8984375 126.98046875 C-49.49109375 126.04009766 -49.08375 125.09972656 -48.6640625 124.13085938 C-47.80772329 122.17555151 -46.9405856 120.22493594 -46.0625 118.27929688 C-42.92550548 110.96130807 -42.40820299 106.74342724 -44.97265625 99.1015625 C-45.33230469 98.28429687 -45.69195312 97.46703125 -46.0625 96.625 C-48 92.17081851 -48 92.17081851 -48 90 C-46.02 90 -44.04 90 -42 90 C-37.93253429 98.66078934 -34.33455871 107.48367172 -30.8125 116.375 C-30.27433458 117.72796248 -29.73592437 119.08082761 -29.19726562 120.43359375 C-28.2130911 122.9061467 -27.23060201 125.37934338 -26.24926758 127.85302734 C-25.17052152 130.57044705 -24.087317 133.2860008 -23 136 C-22.58637207 134.78417236 -22.17274414 133.56834473 -21.74658203 132.31567383 C-20.20853313 127.79584865 -18.66873697 123.27662035 -17.12841797 118.75756836 C-16.46257783 116.80330324 -15.79720875 114.84887756 -15.13232422 112.89428711 C-14.17539919 110.08144246 -13.21676988 107.26918358 -12.2578125 104.45703125 C-11.96190216 103.58601273 -11.66599182 102.7149942 -11.3611145 101.81758118 C-10.00141531 97.83529073 -8.62108322 93.88572951 -7 90 C-4.69 90 -2.38 90 0 90 C0 60.3 0 30.6 0 0 Z M4 4 C4 40.3 4 76.6 4 114 C5.485 113.505 5.485 113.505 7 113 C8.22234598 110.44670327 8.22234598 110.44670327 9.25 107.375 C12.33829179 99.65885257 16.04944411 95.110856 23.625 91.5625 C32.46882948 88.45775135 41.4522947 88.93620497 49.91796875 92.875 C56.77989797 96.58275913 60.0311189 101.87472531 63.3125 108.75 C65.19119398 117.63109882 64.51825406 125.12443216 60 133 C59.4225 134.0725 58.845 135.145 58.25 136.25 C53.40503484 142.17162408 46.50943687 145.50785334 38.921875 146.3359375 C29.74982186 146.44889382 22.2874547 145.20052536 15.1875 139.0625 C9.42068528 132.75036001 6.58800856 123.42812269 6 115 C5.67 115 5.34 115 5 115 C-1.24740186 152.48441117 4 190.99853804 4 229 C91.12 229 178.24 229 268 229 C268 154.75 268 80.5 268 4 C180.88 4 93.76 4 4 4 Z " fill="#E2D3D4" transform="translate(118,37)"/>
<path d="M0 0 C89.76 0 179.52 0 272 0 C272 31.35 272 62.7 272 95 C270.02 95.99 270.02 95.99 268 97 C268 66.31 268 35.62 268 4 C180.88 4 93.76 4 4 4 C4 33.37 4 62.74 4 93 C3.67 95.64 3.34 98.28 3 101 C2.01 101 1.02 101 0 101 C-0.33 99.68 -0.66 98.36 -1 97 C-2.485 97.495 -2.485 97.495 -4 98 C-4.76437774 99.68867169 -4.76437774 99.68867169 -5.2109375 101.875 C-6.63353323 107.08314707 -8.51020173 112.00584233 -10.5390625 117 C-10.86694763 117.80735596 -11.19483276 118.61471191 -11.53265381 119.4465332 C-12.55999854 121.96577514 -13.59248168 124.48287473 -14.625 127 C-15.3259233 128.71988812 -16.02644746 130.43993896 -16.7265625 132.16015625 C-21.79277372 144.58554744 -21.79277372 144.58554744 -23 147 C-23.99 147 -24.98 147 -26 147 C-27.69626135 142.82133055 -29.3867488 138.64038873 -31.07202148 134.45727539 C-31.64565033 133.03574383 -32.22082791 131.61483619 -32.79760742 130.19458008 C-33.62830985 128.14828548 -34.45334272 126.09978201 -35.27734375 124.05078125 C-35.53466782 123.4203743 -35.79199188 122.78996735 -36.05711365 122.14045715 C-37.40015234 118.78391635 -38.42781468 115.5724524 -39 112 C-39.66 112 -40.32 112 -41 112 C-41.15637939 112.56960449 -41.31275879 113.13920898 -41.47387695 113.72607422 C-43.57232822 121.06152995 -46.30988402 128.06437306 -49.1875 135.125 C-49.65091797 136.27226562 -50.11433594 137.41953125 -50.59179688 138.6015625 C-51.72391166 141.40267125 -52.86004534 144.20207482 -54 147 C-54.99 147 -55.98 147 -57 147 C-62.29740717 134.96790466 -67.33154394 122.8390257 -72.17373657 110.61740112 C-72.76622705 109.12251364 -73.36044568 107.62830994 -73.95639038 106.13479614 C-74.80061509 104.01645858 -75.63771145 101.89544716 -76.47265625 99.7734375 C-76.7284848 99.13364456 -76.98431335 98.49385162 -77.24789429 97.83467102 C-78.33475425 95.049158 -79 93.02252061 -79 90 C-77.02 90 -75.04 90 -73 90 C-70.43171122 96.37014069 -67.86876249 102.7424103 -65.30957031 109.11621094 C-64.43776217 111.28565446 -63.56471854 113.4546019 -62.69042969 115.62304688 C-61.43622293 118.73438972 -60.18642494 121.84747138 -58.9375 124.9609375 C-58.54377197 125.934935 -58.15004395 126.9089325 -57.74438477 127.91244507 C-57.38401123 128.81322784 -57.0236377 129.71401062 -56.65234375 130.64208984 C-56.17269165 131.83455826 -56.17269165 131.83455826 -55.68334961 133.05111694 C-55 135 -55 135 -55 137 C-54.34 137 -53.68 137 -53 137 C-52.87834473 136.27852783 -52.75668945 135.55705566 -52.63134766 134.8137207 C-51.99657839 131.98475094 -51.08157637 129.62274502 -49.8984375 126.98046875 C-49.49109375 126.04009766 -49.08375 125.09972656 -48.6640625 124.13085938 C-47.80772329 122.17555151 -46.9405856 120.22493594 -46.0625 118.27929688 C-42.92550548 110.96130807 -42.40820299 106.74342724 -44.97265625 99.1015625 C-45.33230469 98.28429687 -45.69195312 97.46703125 -46.0625 96.625 C-48 92.17081851 -48 92.17081851 -48 90 C-46.02 90 -44.04 90 -42 90 C-37.93253429 98.66078934 -34.33455871 107.48367172 -30.8125 116.375 C-30.27433458 117.72796248 -29.73592437 119.08082761 -29.19726562 120.43359375 C-28.2130911 122.9061467 -27.23060201 125.37934338 -26.24926758 127.85302734 C-25.17052152 130.57044705 -24.087317 133.2860008 -23 136 C-22.58637207 134.78417236 -22.17274414 133.56834473 -21.74658203 132.31567383 C-20.20853313 127.79584865 -18.66873697 123.27662035 -17.12841797 118.75756836 C-16.46257783 116.80330324 -15.79720875 114.84887756 -15.13232422 112.89428711 C-14.17539919 110.08144246 -13.21676988 107.26918358 -12.2578125 104.45703125 C-11.96190216 103.58601273 -11.66599182 102.7149942 -11.3611145 101.81758118 C-10.00141531 97.83529073 -8.62108322 93.88572951 -7 90 C-4.69 90 -2.38 90 0 90 C0 60.3 0 30.6 0 0 Z " fill="#E3D5D5" transform="translate(118,37)"/>
<path d="M0 0 C6.06945657 3.76493885 9.31250582 9.4642979 12.3125 15.75 C14.39527719 25.59585582 13.19500249 34.20738031 7.90234375 42.77734375 C3.47036297 48.68164357 -3.03463535 52.03963585 -10 54 C-19.39342752 55.02517102 -27.59254581 54.06730523 -35.25390625 48.3046875 C-41.48677057 42.63427319 -44.46432985 36.72920219 -45.41015625 28.37890625 C-45.81851409 17.98148738 -43.73492819 10.84261297 -36.75 3.125 C-26.41623624 -6.23513291 -12.01854968 -6.77570731 0 0 Z " fill="#FBFBFB" transform="translate(370,130)"/>
<path d="M0 0 C32.75838926 0 32.75838926 0 42 9 C48.49871675 17.36931511 48.79354562 25.67303648 48 36 C47.10559968 39.06783944 45.85617431 41.41553508 44 44 C43.4225 44.886875 42.845 45.77375 42.25 46.6875 C36.34997847 52.75141102 31.47754503 54.1161011 23 56 C15.41 56 7.82 56 0 56 C0 37.52 0 19.04 0 0 Z " fill="#FCFCFC" transform="translate(264,127)"/>
<path d="M0 0 C1.19367188 -0.01675781 2.38734375 -0.03351563 3.6171875 -0.05078125 C10.0005888 0.61030597 14.00320161 3.53989134 18.125 8.3125 C23.49193478 16.4889711 24.36892266 24.76674568 23.125 34.3125 C20.73440359 42.06486265 17.25622293 47.4105101 10.125 51.3125 C3.72302138 53.44649287 -4.21855533 53.4984128 -10.375 50.75 C-11.2 49.945625 -12.025 49.14125 -12.875 48.3125 C-13.39449219 47.838125 -13.91398438 47.36375 -14.44921875 46.875 C-20.48401314 40.79636933 -21.95065469 33.02161451 -22.3125 24.6875 C-22.01848416 16.07528606 -18.25894293 10.24443579 -12.65625 3.94140625 C-8.65519308 0.28254499 -5.37071779 0.0173249 0 0 Z " fill="#FBFBFB" transform="translate(152.875,128.6875)"/>
<path d="M0 0 C1.98 0 3.96 0 6 0 C8.56828878 6.37014069 11.13123751 12.7424103 13.69042969 19.11621094 C14.56223783 21.28565446 15.43528146 23.4546019 16.30957031 25.62304688 C17.56377707 28.73438972 18.81357506 31.84747138 20.0625 34.9609375 C20.45622803 35.934935 20.84995605 36.9089325 21.25561523 37.91244507 C21.61598877 38.81322784 21.9763623 39.71401062 22.34765625 40.64208984 C22.82730835 41.83455826 22.82730835 41.83455826 23.31665039 43.05111694 C24 45 24 45 24 47 C24.66 47 25.32 47 26 47 C26.18248291 45.91779175 26.18248291 45.91779175 26.36865234 44.8137207 C27.00342161 41.98475094 27.91842363 39.62274502 29.1015625 36.98046875 C29.50890625 36.04009766 29.91625 35.09972656 30.3359375 34.13085938 C31.19227671 32.17555151 32.0594144 30.22493594 32.9375 28.27929688 C36.07449452 20.96130807 36.59179701 16.74342724 34.02734375 9.1015625 C33.48787109 7.87566406 33.48787109 7.87566406 32.9375 6.625 C31 2.17081851 31 2.17081851 31 0 C32.98 0 34.96 0 37 0 C41.06746571 8.66078934 44.66544129 17.48367172 48.1875 26.375 C48.72566542 27.72796248 49.26407563 29.08082761 49.80273438 30.43359375 C50.7869089 32.9061467 51.76939799 35.37934338 52.75073242 37.85302734 C53.82947848 40.57044705 54.912683 43.2860008 56 46 C56.41362793 44.78417236 56.82725586 43.56834473 57.25341797 42.31567383 C58.79146687 37.79584865 60.33126303 33.27662035 61.87158203 28.75756836 C62.53742217 26.80330324 63.20279125 24.84887756 63.86767578 22.89428711 C64.82460081 20.08144246 65.78323012 17.26918358 66.7421875 14.45703125 C67.03809784 13.58601273 67.33400818 12.7149942 67.6388855 11.81758118 C68.99858469 7.83529073 70.37891678 3.88572951 72 0 C73.98 0 75.96 0 78 0 C77.37751401 3.57851784 76.41979761 6.75788655 75.06640625 10.12573242 C74.47073853 11.61703926 74.47073853 11.61703926 73.86303711 13.13847351 C73.43385986 14.20008194 73.00468262 15.26169037 72.5625 16.35546875 C72.12236572 17.45345291 71.68223145 18.55143707 71.22875977 19.68269348 C69.82319894 23.18592801 68.41156945 26.68668285 67 30.1875 C66.04910288 32.55648962 65.09857765 34.92562855 64.1484375 37.29492188 C62.41229468 41.61829374 60.67602629 45.94160998 58.93359375 50.26245117 C58.58353271 51.13117355 58.23347168 51.99989594 57.87280273 52.89494324 C57.29675217 54.28428252 56.67262142 55.65475715 56 57 C55.01 57 54.02 57 53 57 C51.30373865 52.82133055 49.6132512 48.64038873 47.92797852 44.45727539 C47.35434967 43.03574383 46.77917209 41.61483619 46.20239258 40.19458008 C45.37169015 38.14828548 44.54665728 36.09978201 43.72265625 34.05078125 C43.46533218 33.4203743 43.20800812 32.78996735 42.94288635 32.14045715 C41.59984766 28.78391635 40.57218532 25.5724524 40 22 C39.34 22 38.68 22 38 22 C37.84362061 22.56960449 37.68724121 23.13920898 37.52612305 23.72607422 C35.42767178 31.06152995 32.69011598 38.06437306 29.8125 45.125 C29.34908203 46.27226562 28.88566406 47.41953125 28.40820312 48.6015625 C27.27608834 51.40267125 26.13995466 54.20207482 25 57 C24.01 57 23.02 57 22 57 C16.70259283 44.96790466 11.66845606 32.8390257 6.82626343 20.61740112 C6.23377295 19.12251364 5.63955432 17.62830994 5.04360962 16.13479614 C4.19938491 14.01645858 3.36228855 11.89544716 2.52734375 9.7734375 C2.2715152 9.13364456 2.01568665 8.49385162 1.75210571 7.83467102 C0.66524575 5.049158 0 3.02252061 0 0 Z " fill="#0B0A0A" transform="translate(39,127)"/>
<path d="M0 0 C3.65199315 1.21733105 4.44819435 2.49828116 6.8125 5.5 C7.60527344 6.49257812 8.39804688 7.48515625 9.21484375 8.5078125 C9.87589111 9.33974121 9.87589111 9.33974121 10.55029297 10.18847656 C13.29037676 13.61242767 16.08564353 16.99117188 18.875 20.375 C19.76856201 21.46107544 19.76856201 21.46107544 20.68017578 22.5690918 C24.9203678 27.71493915 29.20311208 32.82261314 33.53662109 37.89013672 C35.79463543 40.53779675 37.90842569 43.21123425 40 46 C40 31.15 40 16.3 40 1 C41.65 1 43.3 1 45 1 C45.05676504 10.92036649 44.93384581 20.82083279 44.62768555 30.73632812 C44.56190784 32.89442801 44.50250063 35.05264668 44.44335938 37.2109375 C44.23992827 44.18751577 43.92143559 51.07761834 43 58 C39.03289934 56.67763311 37.53644835 54.10295705 35.125 50.875 C31.0209673 45.50866949 26.76932865 40.32709553 22.3125 35.25 C18.01002987 30.34090048 13.81114981 25.384216 9.78125 20.24609375 C7.56995356 17.45772652 5.27826722 14.73392067 3 12 C3.33 26.85 3.66 41.7 4 57 C2.02 57 0.04 57 -2 57 C-2.36057419 37.92007813 -1.31858979 19.02135913 0 0 Z " fill="#0D0C0C" transform="translate(200,126)"/>
<path d="M0 0 C6.06945657 3.76493885 9.31250582 9.4642979 12.3125 15.75 C14.39527719 25.59585582 13.19500249 34.20738031 7.90234375 42.77734375 C3.47036297 48.68164357 -3.03463535 52.03963585 -10 54 C-19.39342752 55.02517102 -27.59254581 54.06730523 -35.25390625 48.3046875 C-41.48677057 42.63427319 -44.46432985 36.72920219 -45.41015625 28.37890625 C-45.81851409 17.98148738 -43.73492819 10.84261297 -36.75 3.125 C-26.41623624 -6.23513291 -12.01854968 -6.77570731 0 0 Z M-33.1875 6.25 C-38.81317186 13.21933626 -39.84086009 20.19499365 -39 29 C-37.79797564 37.54380062 -34.51620876 43.30926107 -28 49 C-24.49077556 51.35952136 -21.29176199 51.29905883 -17.125 51.3125 C-15.93132812 51.32925781 -14.73765625 51.34601563 -13.5078125 51.36328125 C-7.1792596 50.70787432 -3.00386068 47.82516544 1 43 C6.78101665 34.93198775 7.06098969 26.52925926 6 17 C4.04407932 9.40520162 -0.51804957 4.32130029 -7 0 C-17.31088358 -3.43696119 -25.92988499 -1.42936503 -33.1875 6.25 Z " fill="#100F10" transform="translate(370,130)"/>
<path d="M0 0 C6.07092036 3.75755203 9.31423981 9.46793104 12.3125 15.75 C14.18105612 24.58317437 13.58818911 32.19255689 9 40 C8.63777344 40.63808594 8.27554688 41.27617187 7.90234375 41.93359375 C3.68812632 48.57634326 -2.5552783 51.89545227 -10 54 C-19.39342752 55.02517102 -27.59254581 54.06730523 -35.25390625 48.3046875 C-41.48677057 42.63427319 -44.46432985 36.72920219 -45.41015625 28.37890625 C-45.81793325 17.9962766 -43.71772233 10.88110281 -36.8125 3.125 C-26.53163822 -6.22726782 -11.86507462 -6.5797232 0 0 Z M-33.1875 6.25 C-38.81317186 13.21933626 -39.84086009 20.19499365 -39 29 C-37.79797564 37.54380062 -34.51620876 43.30926107 -28 49 C-24.49077556 51.35952136 -21.29176199 51.29905883 -17.125 51.3125 C-15.93132812 51.32925781 -14.73765625 51.34601563 -13.5078125 51.36328125 C-7.1792596 50.70787432 -3.00386068 47.82516544 1 43 C6.78101665 34.93198775 7.06098969 26.52925926 6 17 C4.04407932 9.40520162 -0.51804957 4.32130029 -7 0 C-17.31088358 -3.43696119 -25.92988499 -1.42936503 -33.1875 6.25 Z " fill="#0F0E0E" transform="translate(170,130)"/>
<path d="M0 0 C32.75838926 0 32.75838926 0 42 9 C48.49871675 17.36931511 48.79354562 25.67303648 48 36 C47.10559968 39.06783944 45.85617431 41.41553508 44 44 C43.4225 44.886875 42.845 45.77375 42.25 46.6875 C36.34997847 52.75141102 31.47754503 54.1161011 23 56 C15.41 56 7.82 56 0 56 C0 37.52 0 19.04 0 0 Z M6 2 C6 18.83 6 35.66 6 53 C21.65150546 54.30009511 21.65150546 54.30009511 34.1484375 48.91796875 C40.82126964 42.00581563 42.37218506 34.48525814 42.28125 25.17578125 C41.72958376 18.94655 39.5879426 13.97419891 35.6875 9.125 C26.13971611 1.57558948 18.6677972 2 6 2 Z " fill="#0D0C0C" transform="translate(264,127)"/>
<path d="M0 0 C2.16874252 0.50603992 3.99967627 0.99983813 6 2 C6 2.66 6 3.32 6 4 C7.0209375 4.24878906 8.041875 4.49757812 9.09375 4.75390625 C13.00179328 5.87147295 16.08817348 7.71401597 19.5 9.9375 C44.47214697 26.15121193 76.59020352 32.21768131 105.875 32.3125 C107.16519043 32.31813965 108.45538086 32.3237793 109.78466797 32.32958984 C115.950991 32.28167557 121.17459188 31.99898768 127 30 C129.30999713 29.62986011 131.62277089 29.27679254 133.9375 28.9375 C154.54283346 25.41486058 173.95592226 15.25766349 191.9609375 5.03125 C194 4 194 4 196 4 C196 3.34 196 2.68 196 2 C197.98 1.67 199.96 1.34 202 1 C200.64527664 4.20969811 199.38708077 5.72904778 196.4296875 7.55078125 C195.70604004 7.99856934 194.98239258 8.44635742 194.23681641 8.90771484 C193.45741699 9.37129395 192.67801758 9.83487305 191.875 10.3125 C191.0711084 10.7967041 190.2672168 11.2809082 189.43896484 11.77978516 C181.88928351 16.23307391 174.11065699 19.71608893 166 23 C164.94167969 23.46019531 163.88335937 23.92039063 162.79296875 24.39453125 C151.02845821 29.49813936 139.4045134 32.47560129 126.7734375 34.38671875 C123.08424109 34.88306213 123.08424109 34.88306213 120 36 C117.44645542 36.1087587 114.92108166 36.16403168 112.3671875 36.16796875 C111.61591583 36.17129715 110.86464417 36.17462555 110.09060669 36.17805481 C108.49856172 36.183117 106.90650614 36.18546335 105.31445312 36.18530273 C102.90476391 36.18747319 100.49554475 36.20559136 98.0859375 36.22460938 C90.46770733 36.25188736 83.39239863 36.05079446 76 34 C74.66899351 33.86942362 73.33527688 33.76276044 72 33.6875 C51.26947407 31.54296284 29.91905263 21.16614568 12 11.11914062 C10.20887448 10.11687996 8.40222586 9.14247902 6.59375 8.171875 C5.21703125 7.40617188 5.21703125 7.40617188 3.8125 6.625 C3.05582031 6.20476562 2.29914063 5.78453125 1.51953125 5.3515625 C1.01808594 4.90554687 0.51664063 4.45953125 0 4 C0 2.68 0 1.36 0 0 Z " fill="#E8DBDB" transform="translate(155,192)"/>
<path d="M0 0 C20.25 0 20.25 0 26.5 5 C28.8071726 9.6143452 28.87392913 13.94898587 28 19 C26.11173683 22.64679833 23.40269249 24.73153834 20 27 C21.0828125 27.5259375 21.0828125 27.5259375 22.1875 28.0625 C30.47237073 33.76985539 32.96049502 43.88148507 36 53 C38.50447516 54.21869929 38.50447516 54.21869929 41 55 C41 55.33 41 55.66 41 56 C33.76918588 56.61278086 33.76918588 56.61278086 30.42578125 53.94921875 C27.73322319 50.67565783 26.27244197 47.44250387 24.875 43.5 C22.11075733 35.15741408 22.11075733 35.15741408 16.0625 29.25 C13.68125147 28.27806183 11.51576713 27.48380137 9 27 C9 26.34 9 25.68 9 25 C10.2375 24.7525 11.475 24.505 12.75 24.25 C16.57212243 23.2470317 18.882355 22.52940834 21 19 C21.88514003 14.01792613 21.79273228 10.29479606 19.125 5.9375 C15.18620458 3.17836437 15.18620458 3.17836437 6 3 C6 20.49 6 37.98 6 56 C4.02 56 2.04 56 0 56 C0 37.52 0 19.04 0 0 Z " fill="#0D0C0C" transform="translate(399,127)"/>
<path d="M0 0 C1.22332031 -0.01417969 2.44664062 -0.02835937 3.70703125 -0.04296875 C7.01421123 0.17602521 9.2266898 0.76067147 12.1875 2.1875 C12.1875 3.8375 12.1875 5.4875 12.1875 7.1875 C7.4375 5.3125 7.4375 5.3125 5.1875 4.1875 C-0.18533978 3.58186589 -4.41570885 3.30107485 -9.0625 6.25 C-11.09090353 9.11944686 -11.09090353 9.11944686 -10.9375 12.6875 C-8.83080613 19.24165871 -3.36182273 22.34005893 2.25 25.75 C13.28610009 32.48330026 13.28610009 32.48330026 15.1875 38.1875 C15.80710014 44.38350138 15.08121645 49.17336942 11.1875 54.1875 C6.00153868 58.72362342 -0.06597408 58.66076505 -6.66796875 58.4609375 C-10.59489253 58.11946587 -14.05625981 57.36592829 -17.8125 56.1875 C-17.8125 54.2075 -17.8125 52.2275 -17.8125 50.1875 C-13.10116625 52.01968535 -13.10116625 52.01968535 -11.01171875 53.234375 C-6.54144937 55.1717564 -1.57460273 54.68125144 3.1875 54.1875 C6.5955066 53.09699375 6.5955066 53.09699375 8.1875 50.1875 C8.7462396 46.77360104 8.86838261 43.58623905 8.1875 40.1875 C6.71752225 38.5138764 6.71752225 38.5138764 5.1875 37.1875 C5.1875 36.5275 5.1875 35.8675 5.1875 35.1875 C4.63964844 34.92582031 4.09179688 34.66414063 3.52734375 34.39453125 C-4.453267 30.27765525 -11.78042502 25.73561246 -16.8125 18.1875 C-17.24365734 12.84114903 -17.29277771 9.50784474 -13.8125 5.1875 C-8.94116594 0.91023107 -6.46458676 0.033846 0 0 Z " fill="#0F0F0F" transform="translate(462.8125,125.8125)"/>
<path d="M0 0 C6.6 0 13.2 0 20 0 C20.66 0.66 21.32 1.32 22 2 C16.72 2 11.44 2 6 2 C6 19.16 6 36.32 6 54 C9.3 54 12.6 54 16 54 C15.67 54.66 15.34 55.32 15 56 C10.05 56 5.1 56 0 56 C0 37.52 0 19.04 0 0 Z " fill="#020000" transform="translate(264,127)"/>
<path d="M0 0 C0 0.66 0 1.32 0 2 C-1.19625 2.515625 -2.3925 3.03125 -3.625 3.5625 C-9.46966092 6.51069179 -13.23876689 10.76636392 -15.875 16.75 C-18.63154877 25.26576675 -17.48253302 34.86588578 -14 43 C-10.34613325 48.71211727 -6.41216218 51.90623276 0 54 C-0.33 54.66 -0.66 55.32 -1 56 C-8.51419479 55.39886442 -12.63468362 52.64178938 -17.6875 47.25 C-23.80905535 39.84183457 -24.62935447 33.28285222 -24.41015625 23.6953125 C-23.51935158 15.66958665 -19.62995394 9.79540145 -13.7578125 4.40625 C-9.26739263 0.81391411 -5.72787669 -0.40913405 0 0 Z " fill="#0B090A" transform="translate(149,127)"/>
<path d="M0 0 C0.99 0.33 1.98 0.66 3 1 C2.36566817 3.95360757 1.40048175 6.39025724 0 9.0625 C-4.41980637 17.52837912 -3.86774023 26.40299694 -1.09765625 35.421875 C1.59768837 41.75257768 5.71229406 45.68640298 11.9375 48.5 C13.28358867 49.02135655 14.63526375 49.52961471 16 50 C16 50.33 16 50.66 16 51 C9.15122822 51.61149748 5.30695358 50.38354365 0 46 C-7.5290363 38.93776395 -10.09777815 32.88681399 -10.5 22.625 C-10.3240645 14.21360745 -8.07663629 7.93239733 -2.1875 1.875 C-1.465625 1.25625 -0.74375 0.6375 0 0 Z " fill="#090908" transform="translate(335,132)"/>
<path d="M0 0 C1.32 0.66 2.64 1.32 4 2 C3.34 2 2.68 2 2 2 C1.85304688 2.54785156 1.70609375 3.09570312 1.5546875 3.66015625 C-0.71447938 11.68048748 -3.82944737 19.3044839 -7 27 C-7.99 27 -8.98 27 -10 27 C-9.37344935 23.33597797 -8.35781607 20.12938799 -6.93359375 16.69921875 C-6.3293457 15.23452148 -6.3293457 15.23452148 -5.71289062 13.74023438 C-5.29201172 12.73283203 -4.87113281 11.72542969 -4.4375 10.6875 C-4.01275391 9.66076172 -3.58800781 8.63402344 -3.15039062 7.57617188 C-2.10429072 5.04907659 -1.05404084 2.52379106 0 0 Z " fill="#1B1919" transform="translate(75,147)"/>
<path d="M0 0 C2.22889496 -0.05428973 4.45817471 -0.09292338 6.6875 -0.125 C8.54955078 -0.15980469 8.54955078 -0.15980469 10.44921875 -0.1953125 C13.81237857 -0.01032021 15.9985587 0.54232105 19 2 C19 3.65 19 5.3 19 7 C14.25 5.125 14.25 5.125 12 4 C10.29636178 3.77377919 8.58671299 3.59111527 6.875 3.4375 C5.96492188 3.35371094 5.05484375 3.26992187 4.1171875 3.18359375 C3.41851562 3.12300781 2.71984375 3.06242188 2 3 C2 2.34 2 1.68 2 1 C1.34 0.67 0.68 0.34 0 0 Z " fill="#262324" transform="translate(456,126)"/>
<path d="M0 0 C0.66 0.33 1.32 0.66 2 1 C-0.99838998 4.9289248 -3.20469043 7.40156348 -8 9 C-10.22818441 9.06937062 -12.45834524 9.08457084 -14.6875 9.0625 C-16.45673828 9.04896484 -16.45673828 9.04896484 -18.26171875 9.03515625 C-19.16535156 9.02355469 -20.06898438 9.01195312 -21 9 C-20.34 8.01 -19.68 7.02 -19 6 C-16.609375 5.59375 -16.609375 5.59375 -13.75 5.5 C-8.11938073 5.1384006 -4.08624686 4.08624686 0 0 Z " fill="#1A1717" transform="translate(168,175)"/>
<path d="M0 0 C4.67403315 1.81767956 4.67403315 1.81767956 6.84375 3.03125 C9.3714424 4.16687992 11.49416304 4.40743392 14.25 4.625 C15.58804687 4.73714844 15.58804687 4.73714844 16.953125 4.8515625 C17.96632813 4.92503906 17.96632813 4.92503906 19 5 C19 5.33 19 5.66 19 6 C17.02 6 15.04 6 13 6 C13 6.66 13 7.32 13 8 C11.58297487 7.85769192 10.1663904 7.71099254 8.75 7.5625 C7.56664062 7.44068359 7.56664062 7.44068359 6.359375 7.31640625 C4.17635361 7.02365007 2.1226818 6.57935581 0 6 C0 4.02 0 2.04 0 0 Z " fill="#1D1C1D" transform="translate(445,176)"/>
<path d="M0 0 C0 0.33 0 0.66 0 1 C2.475 1.495 2.475 1.495 5 2 C5 2.33 5 2.66 5 3 C4.27554687 3.02578125 3.55109375 3.0515625 2.8046875 3.078125 C-3.41013351 3.44272783 -7.16872769 4.03587913 -12 8 C-12.99 8.495 -12.99 8.495 -14 9 C-14.66 7.68 -15.32 6.36 -16 5 C-5.62642369 -0.74031891 -5.62642369 -0.74031891 0 0 Z " fill="#191717" transform="translate(352,126)"/>
<path d="M0 0 C2.10409639 -0.02701408 4.20829178 -0.04640223 6.3125 -0.0625 C7.48425781 -0.07410156 8.65601563 -0.08570312 9.86328125 -0.09765625 C13 0 13 0 16 1 C16.33 2.32 16.66 3.64 17 5 C9.575 4.01 9.575 4.01 2 3 C2 2.34 2 1.68 2 1 C1.34 0.67 0.68 0.34 0 0 Z " fill="#2D2B2B" transform="translate(147,126)"/>
<path d="M0 0 C5.61 0 11.22 0 17 0 C17 0.99 17 1.98 17 3 C14.36 3 11.72 3 9 3 C9 2.67 9 2.34 9 2 C6.03 1.67 3.06 1.34 0 1 C0 0.67 0 0.34 0 0 Z " fill="#4C494A" transform="translate(270,180)"/>
<path d="M0 0 C2.3828125 -0.29296875 2.3828125 -0.29296875 5.125 -0.1875 C6.03507812 -0.16042969 6.94515625 -0.13335937 7.8828125 -0.10546875 C8.58148438 -0.07066406 9.28015625 -0.03585938 10 0 C9.67 0.99 9.34 1.98 9 3 C5.37 3 1.74 3 -2 3 C-1.34 2.01 -0.68 1.02 0 0 Z " fill="#363435" transform="translate(349,181)"/>
<path d="M0 0 C4.95 1.98 4.95 1.98 10 4 C10 4.33 10 4.66 10 5 C2.61538462 5.36923077 2.61538462 5.36923077 -0.5 3.5 C-0.995 3.005 -1.49 2.51 -2 2 C-1.34 1.34 -0.68 0.68 0 0 Z " fill="#171313" transform="translate(341,178)"/>
<path d="M0 0 C3.96 0.33 7.92 0.66 12 1 C12 1.33 12 1.66 12 2 C10.02 2 8.04 2 6 2 C6 2.66 6 3.32 6 4 C4.35 4 2.7 4 1 4 C0.67 2.68 0.34 1.36 0 0 Z " fill="#312F2F" transform="translate(452,180)"/>
<path d="M0 0 C2.64 0.99 5.28 1.98 8 3 C7.67 3.66 7.34 4.32 7 5 C0.25 4.25 0.25 4.25 -2 2 C-1.34 1.34 -0.68 0.68 0 0 Z " fill="#1A1616" transform="translate(141,178)"/>
<path d="M0 0 C1.98 0 3.96 0 6 0 C6 0.33 6 0.66 6 1 C7.65 1.33 9.3 1.66 11 2 C11 2.33 11 2.66 11 3 C5.06 3.495 5.06 3.495 -1 4 C-0.67 2.68 -0.34 1.36 0 0 Z " fill="#403F3F" transform="translate(346,126)"/>
<path d="M0 0 C1.32 0.66 2.64 1.32 4 2 C3.34 2 2.68 2 2 2 C1.34 4.31 0.68 6.62 0 9 C-1.125 7.3125 -1.125 7.3125 -2 5 C-1.125 2.25 -1.125 2.25 0 0 Z " fill="#151212" transform="translate(75,147)"/>
<path d="M0 0 C0.33 0.99 0.66 1.98 1 3 C-1.64 3.66 -4.28 4.32 -7 5 C-6.1875 3.0625 -6.1875 3.0625 -5 1 C-2 0 -2 0 0 0 Z " fill="#1D1B1B" transform="translate(365,179)"/>
<path d="M0 0 C2.1640625 -0.29296875 2.1640625 -0.29296875 4.625 -0.1875 C5.44226563 -0.16042969 6.25953125 -0.13335937 7.1015625 -0.10546875 C8.04128906 -0.05326172 8.04128906 -0.05326172 9 0 C9 0.33 9 0.66 9 1 C5.17679443 2.42258812 2.08718695 3.24042276 -2 3 C-1.34 2.01 -0.68 1.02 0 0 Z " fill="#4B4848" transform="translate(149,181)"/>
<path d="M0 0 C1.32 0.33 2.64 0.66 4 1 C4 1.99 4 2.98 4 4 C0.37 3.67 -3.26 3.34 -7 3 C-7 2.67 -7 2.34 -7 2 C-3.535 1.505 -3.535 1.505 0 1 C0 0.67 0 0.34 0 0 Z " fill="#434141" transform="translate(412,127)"/>
</svg>
